FFmpeg version SVN-r25716, Copyright (c) 2000-2010 the FFmpeg developers  built on Nov 10 2010 12:23:18 with gcc 4.1.2 20080704 (Red Hat 4.1.2-48)  configuration: --enable-libmp3lame --enable-shared --disable-mmx --arch=x86_64  libavutil     50.33. 0 / 50.33. 0  libavcore      0.12. 1 /  0.12. 1  libavcodec    52.94. 4 / 52.94. 4  libavformat   52.84. 0 / 52.84. 0  libavdevice   52. 2. 2 / 52. 2. 2  libavfilter    1.59. 0 /  1.59. 0  libswscale     0.12. 0 /  0.12. 0Input #0, avi, from '/RAID10/data/converted_video_files/47379.avi':  Duration: 00:00:07.70, start: 0.000000, bitrate: 20978 kb/s    Stream #0.0: Video: msvideo1, rgb555le, 1024x1024, 20 tbr, 20 tbn, 20 tbc[buffer @ 0x1db1490] w:1024 h:1024 pixfmt:rgb555le[ffsink @ 0x1db0920] auto-inserting filter 'auto-inserted scaler 0' between the filter 'src' and the filter 'out'[scale @ 0x1daf820] w:1024 h:1024 fmt:rgb555le -> w:1024 h:1024 fmt:yuv420p flags:0x4Output #0, flv, to '/RAID10/data/converted_video_files/47379.flv':  Metadata:    encoder         : Lavf52.84.0    Stream #0.0: Video: flv, yuv420p, 1024x1024, q=2-31, 600 kb/s, 1k tbn, 24 tbcStream mapping:  Stream #0.0 -> #0.0Press [q] to stop encodingframe=    8 fps=  0 q=10.0 size=     707kB time=0.37 bitrate=15494.4kbits/s    frame=   16 fps= 14 q=20.1 size=     890kB time=0.79 bitrate=9204.9kbits/s    frame=   27 fps= 16 q=31.0 size=     936kB time=1.33 bitrate=5746.4kbits/s    frame=   36 fps= 16 q=31.0 size=     974kB time=1.79 bitrate=4450.8kbits/s    frame=   44 fps= 16 q=31.0 size=     984kB time=2.21 bitrate=3650.9kbits/s    frame=   50 fps= 15 q=31.0 size=    1018kB time=2.50 bitrate=3337.0kbits/s    frame=   58 fps= 16 q=31.0 size=    1028kB time=2.88 bitrate=2929.7kbits/s    frame=   64 fps= 15 q=31.0 size=    1063kB time=3.21 bitrate=2714.1kbits/s    frame=   75 fps= 16 q=31.0 size=    1104kB time=3.75 bitrate=2412.5kbits/s    frame=   86 fps= 16 q=31.0 size=    1149kB time=4.29 bitrate=2194.2kbits/s    frame=   96 fps= 16 q=31.0 size=    1205kB time=4.79 bitrate=2059.6kbits/s    frame=  107 fps= 17 q=24.8 size=    1245kB time=5.33 bitrate=1912.9kbits/s    frame=  118 fps= 17 q=31.0 size=    1264kB time=5.88 bitrate=1762.0kbits/s    frame=  127 fps= 17 q=31.0 size=    1314kB time=6.33 bitrate=1699.3kbits/s    frame=  136 fps= 17 q=31.0 size=    1355kB time=6.79 bitrate=1634.8kbits/s    frame=  146 fps= 17 q=31.0 size=    1396kB time=7.29 bitrate=1568.2kbits/s    frame=  154 fps= 17 q=31.0 Lsize=    1407kB time=7.71 bitrate=1495.6kbits/s    video:1405kB audio:0kB global headers:0kB muxing overhead 0.185881%